<svg version="1.1" xmlns="http://www.w3.org/2000/svg" xmlns:xlink="http://www.w3.org/1999/xlink" width="40" height="40" viewBox="0,0,256,256"><g fill="#ffffff" fill-rule="nonzero" stroke="none" stroke-width="1" stroke-linecap="butt" stroke-linejoin="miter" stroke-miterlimit="10" stroke-dasharray="" stroke-dashoffset="0" font-family="none" font-weight="none" font-size="none" text-anchor="none" style="mix-blend-mode: normal"><g transform="translate(-0.13065,255.4893) scale(0.26667,0.26667)"><path d="M262.001,-264.667l-178,-178c-6.66667,-6.66667 -9.83333,-14.55533 -9.5,-23.666c0.33267,-9.11133 3.83233,-17.00033 10.499,-23.667c6.66667,-6.44467 14.55533,-9.72233 23.666,-9.833c9.112,-0.11133 17.001,3.16633 23.667,9.833l153.334,154l47.333,47.334l-24.333,23.999c-6.66667,6.44467 -14.44433,9.72267 -23.333,9.834c-8.88867,0.11067 -16.66633,-3.16733 -23.333,-9.834zM450.666,-264.667l-178,-178c-6.44467,-6.444 -9.55567,-14.27733 -9.333,-23.5c0.222,-9.222 3.55533,-17.16633 10,-23.833c6.66667,-6.66667 14.611,-10 23.833,-10c9.222,0 17.16633,3.33333 23.833,10l153,153.667l355.334,-355.334c6.66667,-6.66667 14.55567,-9.94433 23.667,-9.833c9.11067,0.11133 16.99933,3.50033 23.666,10.167c6.44467,6.66667 9.72267,14.55533 9.834,23.666c0.11067,9.11133 -3.16733,17.00033 -9.834,23.667l-379.333,379.333c-6.66667,6.66667 -14.44467,10 -23.334,10c-8.88867,0 -16.66633,-3.33333 -23.333,-10zM473.999,-429.999l-47.666,-47.333l214.001,-214.001c6.44467,-6.44467 14.278,-9.667 23.5,-9.667c9.222,0 17.16633,3.22233 23.833,9.667c6.66667,6.66667 10,14.611 10,23.833c0,9.222 -3.33333,17.16633 -10,23.833z"></path></g></g></svg>