<svg version="1.1" xmlns="http://www.w3.org/2000/svg" xmlns:xlink="http://www.w3.org/1999/xlink" width="24" height="24" viewBox="0,0,256,256"><g fill="#404040" fill-rule="nonzero" stroke="none" stroke-width="1" stroke-linecap="butt" stroke-linejoin="miter" stroke-miterlimit="10" stroke-dasharray="" stroke-dashoffset="0" font-family="none" font-weight="none" font-size="none" text-anchor="none" style="mix-blend-mode: normal"><g transform="translate(0,256) scale(0.26667,0.26667)"><path d="M480,-424l-196,196c-7.33333,7.33333 -16.66667,11 -28,11c-11.33333,0 -20.66667,-3.66667 -28,-11c-7.33333,-7.33333 -11,-16.66667 -11,-28c0,-11.33333 3.66667,-20.66667 11,-28l196,-196l-196,-196c-7.33333,-7.33333 -11,-16.66667 -11,-28c0,-11.33333 3.66667,-20.66667 11,-28c7.33333,-7.33333 16.66667,-11 28,-11c11.33333,0 20.66667,3.66667 28,11l196,196l196,-196c7.33333,-7.33333 16.66667,-11 28,-11c11.33333,0 20.66667,3.66667 28,11c7.33333,7.33333 11,16.66667 11,28c0,11.33333 -3.66667,20.66667 -11,28l-196,196l196,196c7.33333,7.33333 11,16.66667 11,28c0,11.33333 -3.66667,20.66667 -11,28c-7.33333,7.33333 -16.66667,11 -28,11c-11.33333,0 -20.66667,-3.66667 -28,-11z"></path></g></g></svg>