<svg version="1.1" xmlns="http://www.w3.org/2000/svg" xmlns:xlink="http://www.w3.org/1999/xlink" width="40" height="40" viewBox="0,0,256,256"><g fill="#404040" fill-rule="nonzero" stroke="none" stroke-width="1" stroke-linecap="butt" stroke-linejoin="miter" stroke-miterlimit="10" stroke-dasharray="" stroke-dashoffset="0" font-family="none" font-weight="none" font-size="none" text-anchor="none" style="mix-blend-mode: normal"><g transform="translate(0,256) scale(0.26667,0.26667)"><path d="M319.333,-246.667h321.334v-66.666h-321.334zM319.333,-413.334h321.334v-66.666h-321.334zM226.666,-80c-18,0 -33.611,-6.611 -46.833,-19.833c-13.222,-13.222 -19.833,-28.833 -19.833,-46.833v-666.668c0,-18 6.611,-33.611 19.833,-46.833c13.222,-13.222 28.833,-19.833 46.833,-19.833h347.334l226,226v507.334c0,18 -6.611,33.611 -19.833,46.833c-13.222,13.222 -28.833,19.833 -46.833,19.833zM540.667,-622.667h192.667l-192.667,-190.667z"></path></g></g></svg>