<svg version="1.1" xmlns="http://www.w3.org/2000/svg" xmlns:xlink="http://www.w3.org/1999/xlink" width="40" height="40" viewBox="0,0,256,256"><g fill="#ffffff" fill-rule="nonzero" stroke="none" stroke-width="1" stroke-linecap="butt" stroke-linejoin="miter" stroke-miterlimit="10" stroke-dasharray="" stroke-dashoffset="0" font-family="none" font-weight="none" font-size="none" text-anchor="none" style="mix-blend-mode: normal"><g transform="translate(0.0888,258.22227) scale(0.26667,0.26667)"><path d="M480,-358.667c-4.44467,0 -8.55567,-0.722 -12.333,-2.166c-3.778,-1.44467 -7.44467,-3.94467 -11,-7.5l-193.334,-193.334c-6.444,-6.444 -9.666,-14.22167 -9.666,-23.333c0,-9.11133 3.222,-16.889 9.666,-23.333c6.44467,-6.44467 14.33367,-9.667 23.667,-9.667c9.33333,0 17.222,3.22233 23.666,9.667l169.334,169.334l169.334,-169.334c6.444,-6.44467 14.22167,-9.667 23.333,-9.667c9.11067,0 16.88833,3.22233 23.333,9.667c6.44467,6.444 9.667,14.33267 9.667,23.666c0,9.33333 -3.22233,17.22233 -9.667,23.667l-192.667,192.667c-3.55533,3.55533 -7.222,6.05533 -11,7.5c-3.77733,1.444 -7.88833,2.166 -12.333,2.166z"></path></g></g></svg>