<svg version="1.1" xmlns="http://www.w3.org/2000/svg" xmlns:xlink="http://www.w3.org/1999/xlink" width="40" height="40" viewBox="0,0,256,256"><g fill="#ffffff" fill-rule="nonzero" stroke="none" stroke-width="1" stroke-linecap="butt" stroke-linejoin="miter" stroke-miterlimit="10" stroke-dasharray="" stroke-dashoffset="0" font-family="none" font-weight="none" font-size="none" text-anchor="none" style="mix-blend-mode: normal"><g transform="translate(-0.0016,0.0016)"><g><g transform="translate(0,256) scale(0.26667,0.26667)"><path d="M513.333,-385.333h66.666v-128h128.001v-66.666h-128.001v-128.001h-66.666v128.001h-128v66.666h128zM279.999,-213.333c-18,0 -33.611,-6.611 -46.833,-19.833c-13.222,-13.222 -19.833,-28.833 -19.833,-46.833v-533.335c0,-18 6.611,-33.611 19.833,-46.833c13.222,-13.222 28.833,-19.833 46.833,-19.833h533.335c18,0 33.611,6.611 46.833,19.833c13.222,13.222 19.833,28.833 19.833,46.833v533.335c0,18 -6.611,33.611 -19.833,46.833c-13.222,13.222 -28.833,19.833 -46.833,19.833zM146.666,-80c-18,0 -33.611,-6.611 -46.833,-19.833c-13.222,-13.222 -19.833,-28.833 -19.833,-46.833v-600.001h66.666v600.001h600.001v66.666z"></path></g></g></g></g></svg>
