<svg version="1.1" xmlns="http://www.w3.org/2000/svg" xmlns:xlink="http://www.w3.org/1999/xlink" width="800px" height="800px" viewBox="0,0,256,256"><g fill="#2ecc71" fill-rule="evenodd" stroke="none" stroke-width="1" stroke-linecap="butt" stroke-linejoin="miter" stroke-miterlimit="10" stroke-dasharray="" stroke-dashoffset="0" font-family="none" font-weight="none" font-size="none" text-anchor="none" style="mix-blend-mode: normal"><g transform="scale(10.66667,10.66667)"><path d="M3,7c0,-0.55228 0.44772,-1 1,-1h16c0.5523,0 1,0.44772 1,1c0,0.55228 -0.4477,1 -1,1h-16c-0.55228,0 -1,-0.44772 -1,-1zM6,12c0,-0.5523 0.44772,-1 1,-1h10c0.5523,0 1,0.4477 1,1c0,0.5523 -0.4477,1 -1,1h-10c-0.55228,0 -1,-0.4477 -1,-1zM9,17c0,-0.5523 0.44772,-1 1,-1h4c0.5523,0 1,0.4477 1,1c0,0.5523 -0.4477,1 -1,1h-4c-0.55228,0 -1,-0.4477 -1,-1z"></path></g></g></svg>