<svg version="1.1" xmlns="http://www.w3.org/2000/svg" xmlns:xlink="http://www.w3.org/1999/xlink" width="40" height="40" viewBox="0,0,256,256"><g fill="#ffffff" fill-rule="nonzero" stroke="none" stroke-width="1" stroke-linecap="butt" stroke-linejoin="miter" stroke-miterlimit="10" stroke-dasharray="" stroke-dashoffset="0" font-family="none" font-weight="none" font-size="none" text-anchor="none" style="mix-blend-mode: normal"><g transform="translate(0,256) scale(0.26667,0.26667)"><path d="M186.666,-120c-18,0 -33.611,-6.611 -46.833,-19.833c-13.222,-13.222 -19.833,-28.833 -19.833,-46.833v-586.668c0,-18 6.611,-33.611 19.833,-46.833c13.222,-13.222 28.833,-19.833 46.833,-19.833h586.668c18,0 33.611,6.611 46.833,19.833c13.222,13.222 19.833,28.833 19.833,46.833v586.668c0,18 -6.611,33.611 -19.833,46.833c-13.222,13.222 -28.833,19.833 -46.833,19.833zM237.333,-278h486l-148,-197.333l-128,167.333l-92,-124.666z"></path></g></g></svg>