<svg version="1.1" xmlns="http://www.w3.org/2000/svg" xmlns:xlink="http://www.w3.org/1999/xlink" width="40" height="40" viewBox="0,0,256,256"><g fill="#000000" fill-rule="nonzero" stroke="none" stroke-width="1" stroke-linecap="butt" stroke-linejoin="miter" stroke-miterlimit="10" stroke-dasharray="" stroke-dashoffset="0" font-family="none" font-weight="none" font-size="none" text-anchor="none" style="mix-blend-mode: normal"><g transform="translate(-0.08893,259.11107) scale(0.26667,0.26667)"><path d="M447.334,-122c-81.556,-7.778 -149.834,-41.94467 -204.834,-102.5c-55,-60.55533 -82.5,-132.16633 -82.5,-214.833c0,-48.88933 10.778,-95.16733 32.334,-138.834c21.55533,-43.66667 51.88867,-80.05567 91,-109.167l47.666,47.667c-33.33333,22.222 -59.05567,51.111 -77.167,86.667c-18.11133,35.55533 -27.167,73.44433 -27.167,113.667c0,64 20.889,119.72233 62.667,167.167c41.778,47.444 94.445,75.27733 158.001,83.5zM514,-122v-66.666c63.778,-8.88933 116.38933,-36.88933 157.834,-84c41.444,-47.11133 62.166,-102.667 62.166,-166.667c0,-70.66667 -24.55533,-130.55567 -73.666,-179.667c-49.11133,-49.11133 -109.00033,-73.667 -179.667,-73.667h-14.334l54.667,54.667l-47.333,47.333l-135.333,-135.333l135.333,-135.333l47.333,47.333l-54.667,54.667h14.334c89.33333,0 165,31.111 227,93.333c62,62.222 93,137.77767 93,226.667c0,82.444 -27.389,153.944 -82.167,214.5c-54.778,60.55533 -122.94467,94.833 -204.5,102.833z"></path></g></g></svg>