<svg version="1.1" xmlns="http://www.w3.org/2000/svg" xmlns:xlink="http://www.w3.org/1999/xlink" width="40" height="40" viewBox="0,0,256,256"><g fill="#ffffff" fill-rule="nonzero" stroke="none" stroke-width="1" stroke-linecap="butt" stroke-linejoin="miter" stroke-miterlimit="10" stroke-dasharray="" stroke-dashoffset="0" font-family="none" font-weight="none" font-size="none" text-anchor="none" style="mix-blend-mode: normal"><g transform="translate(0,256) scale(0.26667,0.26667)"><path d="M446.667,-280h-166.667c-55.33333,0 -102.5,-19.5 -141.5,-58.5c-39,-39 -58.5,-86.16667 -58.5,-141.5c0,-55.33333 19.5,-102.5 58.5,-141.5c39,-39 86.16667,-58.5 141.5,-58.5h166.667v66.666h-166.667c-37.03733,0 -68.519,12.948 -94.445,38.844c-25.926,25.89533 -38.889,57.33967 -38.889,94.333c0,36.99333 12.963,68.49033 38.889,94.491c25.926,26 57.40767,39 94.445,39h166.667zM323.333,-446.667v-66.666h313.334v66.666zM513.333,-280v-66.666h166.667c37.03733,0 68.519,-12.948 94.445,-38.844c25.926,-25.89533 38.889,-57.33967 38.889,-94.333c0,-36.99333 -12.963,-68.49033 -38.889,-94.491c-25.926,-26 -57.40767,-39 -94.445,-39h-166.667v-66.666h166.667c55.33333,0 102.5,19.5 141.5,58.5c39,39 58.5,86.16667 58.5,141.5c0,55.33333 -19.5,102.5 -58.5,141.5c-39,39 -86.16667,58.5 -141.5,58.5z"></path></g></g></svg>