<svg version="1.1" xmlns="http://www.w3.org/2000/svg" xmlns:xlink="http://www.w3.org/1999/xlink" width="800px" height="800px" viewBox="0,0,256,256"><g fill="#2ecc71" fill-rule="nonzero" stroke="none" stroke-width="1" stroke-linecap="butt" stroke-linejoin="miter" stroke-miterlimit="10" stroke-dasharray="" stroke-dashoffset="0" font-family="none" font-weight="none" font-size="none" text-anchor="none" style="mix-blend-mode: normal"><g transform="translate(0.24615,0.30645) scale(4.92308,4.92308)"><path d="M30.4,11.3l13.6,13.5c0.5997,0.61073 0.5997,1.58927 0,2.2l-13.6,13.5c-0.61073,0.5997 -1.58927,0.5997 -2.2,0l-2.2,-2.2c-0.5997,-0.61073 -0.5997,-1.58927 0,-2.2l9.4,-9.1c0.5997,-0.61073 0.5997,-1.58927 0,-2.2l-9.3,-9.1c-0.5997,-0.61073 -0.5997,-1.58927 0,-2.2l2.2,-2.2c0.61106,-0.49903 1.48894,-0.49903 2.1,0z"></path><path d="M12.3,11.3l13.8,13.5c0.5997,0.61073 0.5997,1.58927 0,2.2l-13.8,13.5c-0.61073,0.5997 -1.58927,0.5997 -2.2,0l-2.2,-2.2c-0.5997,-0.61073 -0.5997,-1.58927 0,-2.2l9.4,-9.1c0.5997,-0.61073 0.5997,-1.58927 0,-2.2l-9.3,-9.1c-0.5997,-0.61073 -0.5997,-1.58927 0,-2.2l2.2,-2.2c0.61106,-0.49903 1.48894,-0.49903 2.1,0z"></path></g></g></svg>