<svg version="1.1" xmlns="http://www.w3.org/2000/svg" xmlns:xlink="http://www.w3.org/1999/xlink" width="40" height="40" viewBox="0,0,256,256"><g fill="#ffffff" fill-rule="nonzero" stroke="none" stroke-width="1" stroke-linecap="butt" stroke-linejoin="miter" stroke-miterlimit="10" stroke-dasharray="" stroke-dashoffset="0" font-family="none" font-weight="none" font-size="none" text-anchor="none" style="mix-blend-mode: normal"><g transform="translate(0,256) scale(0.26667,0.26667)"><path d="M226,-262c39.33333,-26.444 79.66667,-46.72167 121,-60.833c41.33333,-14.11133 85.66667,-21.167 133,-21.167c47.33333,0 91.77767,7.05567 133.333,21.167c41.556,14.11133 82.00067,34.389 121.334,60.833c27.33333,-33.11133 47.27767,-67.667 59.833,-103.667c12.556,-36 18.834,-74.111 18.834,-114.333c0,-94 -32.05567,-173.05567 -96.167,-237.167c-64.11133,-64.11133 -143.167,-96.167 -237.167,-96.167c-94,0 -173.05567,32.05567 -237.167,96.167c-64.11133,64.11133 -96.167,143.167 -96.167,237.167c0,40.222 6.389,78.333 19.167,114.333c12.778,36 32.83367,70.55567 60.167,103.667zM479.876,-446.667c-38.806,0 -71.487,-13.319 -98.043,-39.957c-26.55533,-26.638 -39.833,-59.36033 -39.833,-98.167c0,-38.806 13.319,-71.48667 39.957,-98.042c26.63867,-26.556 59.361,-39.834 98.167,-39.834c38.806,0 71.487,13.31933 98.043,39.958c26.55533,26.638 39.833,59.36 39.833,98.166c0,38.80667 -13.319,71.48767 -39.957,98.043c-26.63867,26.55533 -59.361,39.833 -98.167,39.833zM479.73,-80c-55.398,0 -107.459,-10.5 -156.183,-31.5c-48.724,-21 -91.10733,-49.611 -127.15,-85.833c-36.04267,-36.22267 -64.45267,-78.63167 -85.23,-127.227c-20.778,-48.596 -31.167,-100.52033 -31.167,-155.773c0,-55.25333 10.5,-107.17767 31.5,-155.773c21,-48.596 49.611,-90.894 85.833,-126.894c36.22267,-36 78.63167,-64.5 127.227,-85.5c48.596,-21 100.52033,-31.5 155.773,-31.5c55.25333,0 107.17767,10.5 155.773,31.5c48.596,21 90.894,49.5 126.894,85.5c36,36 64.5,78.33333 85.5,127c21,48.66667 31.5,100.60767 31.5,155.823c0,55.21467 -10.5,107.10333 -31.5,155.666c-21,48.56267 -49.5,90.95533 -85.5,127.178c-36,36.222 -78.362,64.833 -127.086,85.833c-48.724,21 -100.78533,31.5 -156.184,31.5z"></path></g></g></svg>