<svg version="1.1" xmlns="http://www.w3.org/2000/svg" xmlns:xlink="http://www.w3.org/1999/xlink" width="24" height="24" viewBox="0,0,256,256"><g fill="#a7b8ff" fill-rule="nonzero" stroke="none" stroke-width="1" stroke-linecap="butt" stroke-linejoin="miter" stroke-miterlimit="10" stroke-dasharray="" stroke-dashoffset="0" font-family="none" font-weight="none" font-size="none" text-anchor="none" style="mix-blend-mode: normal"><g transform="translate(-0.0016,0.00167)"><g><g transform="translate(0,261.33333) scale(0.26667,0.26667)"><path d="M80,-120v-80h360v-447c-17.33333,-6 -32.33333,-15.33333 -45,-28c-12.66667,-12.66667 -22,-27.66667 -28,-45h-127l120,280c0,33.33333 -13.66667,61.66667 -41,85c-27.33333,23.33333 -60.33333,35 -99,35c-38.66667,0 -71.66667,-11.66667 -99,-35c-27.33333,-23.33333 -41,-51.66667 -41,-85l120,-280h-80v-80h247c8,-23.33333 22.33333,-42.5 43,-57.5c20.66667,-15 44,-22.5 70,-22.5c26,0 49.33333,7.5 70,22.5c20.66667,15 35,34.16667 43,57.5h247v80h-80l120,280c0,33.33333 -13.66667,61.66667 -41,85c-27.33333,23.33333 -60.33333,35 -99,35c-38.66667,0 -71.66667,-11.66667 -99,-35c-27.33333,-23.33333 -41,-51.66667 -41,-85l120,-280h-127c-6,17.33333 -15.33333,32.33333 -28,45c-12.66667,12.66667 -27.66667,22 -45,28v447h360v80zM665,-440h150l-75,-174zM145,-440h150l-75,-174zM480,-720c11.33333,0 20.83333,-3.83333 28.5,-11.5c7.66667,-7.66667 11.5,-17.16667 11.5,-28.5c0,-11.33333 -3.83333,-20.83333 -11.5,-28.5c-7.66667,-7.66667 -17.16667,-11.5 -28.5,-11.5c-11.33333,0 -20.83333,3.83333 -28.5,11.5c-7.66667,7.66667 -11.5,17.16667 -11.5,28.5c0,11.33333 3.83333,20.83333 11.5,28.5c7.66667,7.66667 17.16667,11.5 28.5,11.5z"></path></g></g></g></g></svg>