<svg version="1.1" xmlns="http://www.w3.org/2000/svg" xmlns:xlink="http://www.w3.org/1999/xlink" width="40" height="40" viewBox="0,0,256,256"><g fill="#ffffff" fill-rule="nonzero" stroke="none" stroke-width="1" stroke-linecap="butt" stroke-linejoin="miter" stroke-miterlimit="10" stroke-dasharray="" stroke-dashoffset="0" font-family="none" font-weight="none" font-size="none" text-anchor="none" style="mix-blend-mode: normal"><g transform="translate(0,250.57773) scale(0.26667,0.26667)"><path d="M291.255,-718c-14.83667,0 -27.42167,5.19267 -37.755,15.578c-10.33333,10.386 -15.5,22.99733 -15.5,37.834c0,14.836 5.19267,27.42067 15.578,37.754c10.386,10.33333 22.997,15.5 37.833,15.5c14.83667,0 27.42167,-5.19267 37.755,-15.578c10.33333,-10.38533 15.5,-22.99633 15.5,-37.833c0,-14.83667 -5.19267,-27.42167 -15.578,-37.755c-10.386,-10.33333 -22.997,-15.5 -37.833,-15.5zM291.255,-308.666c-14.83667,0 -27.42167,5.19267 -37.755,15.578c-10.33333,10.38533 -15.5,22.99633 -15.5,37.833c0,14.83667 5.19267,27.42167 15.578,37.755c10.386,10.33333 22.997,15.5 37.833,15.5c14.83667,0 27.42167,-5.19267 37.755,-15.578c10.33333,-10.386 15.5,-22.99733 15.5,-37.834c0,-14.836 -5.19267,-27.42067 -15.578,-37.754c-10.386,-10.33333 -22.997,-15.5 -37.833,-15.5zM156,-839.333h647.333c10.88933,0 19.72267,3.38867 26.5,10.166c6.778,6.778 10.167,15.681 10.167,26.709v272.458c0,11.522 -3.389,21.18033 -10.167,28.975c-6.77733,7.794 -15.61067,11.691 -26.5,11.691h-647.333c-10.44467,0 -19.05567,-3.897 -25.833,-11.691c-6.778,-7.79467 -10.167,-17.453 -10.167,-28.975v-272.458c0,-11.028 3.389,-19.931 10.167,-26.709c6.77733,-6.77733 15.38833,-10.166 25.833,-10.166zM156,-430.666h644.667c10.444,0 19.61067,4.05533 27.5,12.166c7.88867,8.11133 11.833,17.61733 11.833,28.518v269.315c0,12.66667 -3.94433,22.61133 -11.833,29.834c-7.88933,7.222 -17.056,10.833 -27.5,10.833h-641.334c-10.88867,0 -20.16633,-3.611 -27.833,-10.833c-7.66667,-7.22267 -11.5,-17.16733 -11.5,-29.834v-269.315c0,-10.90067 3.389,-20.40667 10.167,-28.518c6.77733,-8.11067 15.38833,-12.166 25.833,-12.166z"></path></g></g></svg>