<svg version="1.1" xmlns="http://www.w3.org/2000/svg" xmlns:xlink="http://www.w3.org/1999/xlink" width="40" height="40" viewBox="0,0,256,256"><g fill="#ffffff" fill-rule="nonzero" stroke="none" stroke-width="1" stroke-linecap="butt" stroke-linejoin="miter" stroke-miterlimit="10" stroke-dasharray="" stroke-dashoffset="0" font-family="none" font-weight="none" font-size="none" text-anchor="none" style="mix-blend-mode: normal"><g transform="translate(0,256) scale(0.26667,0.26667)"><path d="M186.666,-80c-18.33333,0 -34.02767,-6.52767 -47.083,-19.583c-13.05533,-13.05533 -19.583,-28.74967 -19.583,-47.083v-472.334c-11.55533,-5.11133 -21.111,-13.031 -28.667,-23.759c-7.55533,-10.728 -11.333,-23.14167 -11.333,-37.241v-133.334c0,-18.33333 6.52767,-34.02767 19.583,-47.083c13.05533,-13.05533 28.74967,-19.583 47.083,-19.583h666.668c18.33333,0 34.02767,6.52767 47.083,19.583c13.05533,13.05533 19.583,28.74967 19.583,47.083v133.334c0,14.09933 -3.77767,26.513 -11.333,37.241c-7.556,10.728 -17.11167,18.64767 -28.667,23.759v472.334c0,18.33333 -6.52767,34.02767 -19.583,47.083c-13.05533,13.05533 -28.74967,19.583 -47.083,19.583zM146.666,-680h666.668v-133.334h-666.668zM360,-413.334h240v-66.666h-240z"></path></g></g></svg>