<svg version="1.1" xmlns="http://www.w3.org/2000/svg" xmlns:xlink="http://www.w3.org/1999/xlink" width="40" height="40" viewBox="0,0,256,256"><g fill="#ffffff" fill-rule="nonzero" stroke="none" stroke-width="1" stroke-linecap="butt" stroke-linejoin="miter" stroke-miterlimit="10" stroke-dasharray="" stroke-dashoffset="0" font-family="none" font-weight="none" font-size="none" text-anchor="none" style="mix-blend-mode: normal"><g transform="translate(0.04292,258.35412) scale(0.26667,0.26667)"><path d="M480,-538.334l-169.334,169.334c-6.444,6.44467 -14.33267,9.778 -23.666,10c-9.33333,0.222 -17.22233,-2.889 -23.667,-9.333c-6.444,-6.44467 -9.666,-14.33367 -9.666,-23.667c0,-9.33333 3.222,-17.222 9.666,-23.666l193.334,-193.334c3.55533,-3.55533 7.222,-6.05533 11,-7.5c3.77733,-1.44467 7.88833,-2.167 12.333,-2.167c4.44467,0 8.55567,0.72233 12.333,2.167c3.778,1.44467 7.44467,3.94467 11,7.5l192.667,192.667c6.44467,6.44467 9.778,14.22233 10,23.333c0.222,9.11133 -2.889,16.889 -9.333,23.333c-6.44467,6.44467 -14.33367,9.667 -23.667,9.667c-9.33333,0 -17.222,-3.22233 -23.666,-9.667z"></path></g></g></svg>