<svg version="1.1" xmlns="http://www.w3.org/2000/svg" xmlns:xlink="http://www.w3.org/1999/xlink" width="40" height="40" viewBox="0,0,256,256"><g fill="#e74c3c" fill-rule="nonzero" stroke="none" stroke-width="1" stroke-linecap="butt" stroke-linejoin="miter" stroke-miterlimit="10" stroke-dasharray="" stroke-dashoffset="0" font-family="none" font-weight="none" font-size="none" text-anchor="none" style="mix-blend-mode: normal"><g transform="translate(0,261.33333) scale(0.26667,0.26667)"><path d="M40,-120l440,-760l440,760zM482.784,-238c9.47733,0 17.38267,-3.20567 23.716,-9.617c6.33333,-6.41133 9.5,-14.35567 9.5,-23.833c0,-9.47733 -3.20567,-17.38267 -9.617,-23.716c-6.41133,-6.33333 -14.35567,-9.5 -23.833,-9.5c-9.478,0 -17.38333,3.20567 -23.716,9.617c-6.33333,6.41133 -9.5,14.35567 -9.5,23.833c0,9.47733 3.20567,17.38267 9.617,23.716c6.41067,6.33333 14.355,9.5 23.833,9.5zM449.334,-352h66.666v-216h-66.666z"></path></g></g></svg>