<svg version="1.1" xmlns="http://www.w3.org/2000/svg" xmlns:xlink="http://www.w3.org/1999/xlink" width="40" height="40" viewBox="0,0,256,256"><g fill="#ffffff" fill-rule="nonzero" stroke="none" stroke-width="1" stroke-linecap="butt" stroke-linejoin="miter" stroke-miterlimit="10" stroke-dasharray="" stroke-dashoffset="0" font-family="none" font-weight="none" font-size="none" text-anchor="none" style="mix-blend-mode: normal"><g transform="translate(-2,256.08893) scale(0.26667,0.26667)"><path d="M386.334,-528.333l-208.334,-208.334c-6.44467,-6.44467 -9.667,-14.33367 -9.667,-23.667c0,-9.33333 3.22233,-17.222 9.667,-23.666c6.138,-6 13.95033,-9 23.437,-9c9.486,0 17.229,3 23.229,9l209.001,208.334zM608,-153.333c-9.444,0 -17.36067,-3.20567 -23.75,-9.617c-6.38867,-6.41133 -9.583,-14.35567 -9.583,-23.833c0,-9.478 3.19433,-17.38333 9.583,-23.716c6.38933,-6.33333 14.306,-9.5 23.75,-9.5h84.668l-165.335,-164.668l47,-47.667l166.334,165.002v-85.334c0,-9.44467 3.20567,-17.36133 9.617,-23.75c6.41133,-6.38933 14.35567,-9.584 23.833,-9.584c9.478,0 17.38367,3.19467 23.717,9.584c6.33333,6.38867 9.5,14.30533 9.5,23.75v166c0,9.444 -3.19467,17.36067 -9.584,23.75c-6.38867,6.38867 -14.30533,9.583 -23.75,9.583zM177.333,-177c-6.44467,-6.222 -9.667,-13.99967 -9.667,-23.333c0,-9.33333 3.22233,-17.222 9.667,-23.666l516.668,-516.668h-86.001c-9.444,0 -17.36067,-3.20567 -23.75,-9.617c-6.38867,-6.41133 -9.583,-14.35567 -9.583,-23.833c0,-9.478 3.19433,-17.38367 9.583,-23.717c6.38933,-6.33333 14.306,-9.5 23.75,-9.5h166c9.44467,0 17.36133,3.19467 23.75,9.584c6.38933,6.38867 9.584,14.30533 9.584,23.75v166c0,9.444 -3.20567,17.36067 -9.617,23.75c-6.41133,6.38867 -14.356,9.583 -23.834,9.583c-9.47733,0 -17.38267,-3.19433 -23.716,-9.583c-6.33333,-6.38933 -9.5,-14.306 -9.5,-23.75v-85.334l-516.668,516.668c-6.02933,6 -13.70333,9 -23.022,9c-9.318,0 -17.19933,-3.11133 -23.644,-9.334z"></path></g></g></svg>