<svg version="1.1" xmlns="http://www.w3.org/2000/svg" xmlns:xlink="http://www.w3.org/1999/xlink" width="40" height="40" viewBox="0,0,256,256"><g fill="#ffffff" fill-rule="nonzero" stroke="none" stroke-width="1" stroke-linecap="butt" stroke-linejoin="miter" stroke-miterlimit="10" stroke-dasharray="" stroke-dashoffset="0" font-family="none" font-weight="none" font-size="none" text-anchor="none" style="mix-blend-mode: normal"><g transform="translate(0,261.33333) scale(0.26667,0.26667)"><path d="M480.078,-326.667c48.17,0 89.08833,-16.85933 122.755,-50.578c33.66667,-33.71933 50.5,-74.66367 50.5,-122.833c0,-48.17 -16.85933,-89.08833 -50.578,-122.755c-33.71933,-33.66667 -74.66367,-50.5 -122.833,-50.5c-48.17,0 -89.08833,16.85933 -122.755,50.578c-33.66667,33.71933 -50.5,74.66367 -50.5,122.833c0,48.17 16.85933,89.08833 50.578,122.755c33.71933,33.66667 74.66367,50.5 122.833,50.5zM479.843,-389.333c-30.784,0 -56.89833,-10.77467 -78.343,-32.324c-21.44467,-21.54867 -32.167,-47.71533 -32.167,-78.5c0,-30.784 10.77467,-56.89833 32.324,-78.343c21.54867,-21.44467 47.71533,-32.167 78.5,-32.167c30.784,0 56.89833,10.77467 78.343,32.324c21.44467,21.54867 32.167,47.71533 32.167,78.5c0,30.784 -10.77467,56.89833 -32.324,78.343c-21.54867,21.44467 -47.71533,32.167 -78.5,32.167zM480,-200c-97.33333,0 -185.55567,-27.5 -264.667,-82.5c-79.11067,-55 -137.555,-127.5 -175.333,-217.5c37.778,-90 96.22233,-162.5 175.333,-217.5c79.11133,-55 167.33367,-82.5 264.667,-82.5c97.33333,0 185.55567,27.5 264.667,82.5c79.11067,55 137.555,127.5 175.333,217.5c-37.778,90 -96.22233,162.5 -175.333,217.5c-79.11133,55 -167.33367,82.5 -264.667,82.5z"></path></g></g></svg>