<svg version="1.1" xmlns="http://www.w3.org/2000/svg" xmlns:xlink="http://www.w3.org/1999/xlink" width="40" height="40" viewBox="0,0,256,256"><g fill="#404040" fill-rule="nonzero" stroke="none" stroke-width="1" stroke-linecap="butt" stroke-linejoin="miter" stroke-miterlimit="10" stroke-dasharray="" stroke-dashoffset="0" font-family="none" font-weight="none" font-size="none" text-anchor="none" style="mix-blend-mode: normal"><g transform="translate(0,256) scale(0.26667,0.26667)"><path d="M186.666,-513.333c-18.33333,0 -34.02767,-6.52767 -47.083,-19.583c-13.05533,-13.056 -19.583,-28.75033 -19.583,-47.083v-193.335c0,-18.33333 6.52767,-34.02767 19.583,-47.083c13.05533,-13.05533 28.74967,-19.583 47.083,-19.583h193.335c18.33267,0 34.027,6.52767 47.083,19.583c13.05533,13.05533 19.583,28.74967 19.583,47.083v193.335c0,18.33267 -6.52767,34.027 -19.583,47.083c-13.056,13.05533 -28.75033,19.583 -47.083,19.583zM186.666,-120c-18.33333,0 -34.02767,-6.52767 -47.083,-19.583c-13.05533,-13.05533 -19.583,-28.74967 -19.583,-47.083v-193.335c0,-18.33267 6.52767,-34.027 19.583,-47.083c13.05533,-13.05533 28.74967,-19.583 47.083,-19.583h193.335c18.33267,0 34.027,6.52767 47.083,19.583c13.05533,13.056 19.583,28.75033 19.583,47.083v193.335c0,18.33333 -6.52767,34.02767 -19.583,47.083c-13.056,13.05533 -28.75033,19.583 -47.083,19.583zM579.999,-513.333c-18.33267,0 -34.027,-6.52767 -47.083,-19.583c-13.05533,-13.056 -19.583,-28.75033 -19.583,-47.083v-193.335c0,-18.33333 6.52767,-34.02767 19.583,-47.083c13.056,-13.05533 28.75033,-19.583 47.083,-19.583h193.335c18.33333,0 34.02767,6.52767 47.083,19.583c13.05533,13.05533 19.583,28.74967 19.583,47.083v193.335c0,18.33267 -6.52767,34.027 -19.583,47.083c-13.05533,13.05533 -28.74967,19.583 -47.083,19.583zM579.999,-120c-18.33267,0 -34.027,-6.52767 -47.083,-19.583c-13.05533,-13.05533 -19.583,-28.74967 -19.583,-47.083v-193.335c0,-18.33267 6.52767,-34.027 19.583,-47.083c13.056,-13.05533 28.75033,-19.583 47.083,-19.583h193.335c18.33333,0 34.02767,6.52767 47.083,19.583c13.05533,13.056 19.583,28.75033 19.583,47.083v193.335c0,18.33333 -6.52767,34.02767 -19.583,47.083c-13.05533,13.05533 -28.74967,19.583 -47.083,19.583z"></path></g></g></svg>