<svg version="1.1" xmlns="http://www.w3.org/2000/svg" xmlns:xlink="http://www.w3.org/1999/xlink" width="40" height="40" viewBox="0,0,256,256"><g fill="#ffffff" fill-rule="nonzero" stroke="none" stroke-width="1" stroke-linecap="butt" stroke-linejoin="miter" stroke-miterlimit="10" stroke-dasharray="" stroke-dashoffset="0" font-family="none" font-weight="none" font-size="none" text-anchor="none" style="mix-blend-mode: normal"><g transform="translate(-1.82227,255.91107) scale(0.26667,0.26667)"><path d="M247.999,-446l135.334,135.334c6.44467,6.444 9.55567,14.22167 9.333,23.333c-0.222,9.11067 -3.555,16.88833 -9.999,23.333c-6.44467,6.44467 -14.33367,9.667 -23.667,9.667c-9.33333,0 -17.22233,-3.22233 -23.667,-9.667l-192,-192c-3.55533,-3.55533 -6.05533,-7.25167 -7.5,-11.089c-1.444,-3.83667 -2.166,-7.94767 -2.166,-12.333c0,-4.38533 0.722,-8.467 2.166,-12.245c1.44467,-3.77733 3.94467,-7.444 7.5,-11l192.667,-192.666c6.44467,-6.44467 14.33367,-9.667 23.667,-9.667c9.33333,0 17.222,3.22233 23.666,9.667c6.44467,6.444 9.667,14.33267 9.667,23.666c0,9.33333 -3.22233,17.22233 -9.667,23.667l-136,136h526.001v-134.667c0,-9.444 3.20567,-17.36067 9.617,-23.75c6.41133,-6.38867 14.35567,-9.583 23.833,-9.583c9.47733,0 17.38267,3.19433 23.716,9.583c6.33333,6.38933 9.5,14.306 9.5,23.75v134.001c0,18.33267 -6.52767,34.027 -19.583,47.083c-13.05533,13.05533 -28.74967,19.583 -47.083,19.583z"></path></g></g></svg>